<?xml version="1.0" standalone="no"?>
<!DOCTYPE svg PUBLIC "-//W3C//DTD SVG 20010904//EN"
 "http://www.w3.org/TR/2001/REC-SVG-20010904/DTD/svg10.dtd">
<svg version="1.0" xmlns="http://www.w3.org/2000/svg"
 width="512.000000pt" height="512.000000pt" viewBox="0 0 512.000000 512.000000"
 preserveAspectRatio="xMidYMid meet">

<g transform="translate(0.000000,512.000000) scale(0.100000,-0.100000)"
fill="#000000" stroke="none">
<path d="M3073 5106 c-107 -26 -199 -87 -268 -179 -69 -90 -87 -150 -94 -302
l-6 -130 -938 -5 c-915 -5 -939 -5 -953 -24 -12 -17 -14 -249 -14 -1581 l0
-1562 23 -21 c33 -31 80 -29 106 4 l21 27 0 1503 0 1504 1125 0 1125 0 0
-2095 0 -2095 -1125 0 -1125 0 0 435 0 436 -25 24 c-31 32 -69 32 -100 0 l-25
-24 0 -490 0 -490 26 -20 c27 -21 28 -21 1249 -21 1221 0 1222 0 1249 21 l26
20 0 2205 c0 2191 0 2204 -20 2224 -19 19 -33 20 -246 20 l-226 0 4 123 c3
108 7 128 30 172 34 64 100 128 163 157 47 22 65 23 288 26 265 4 310 -3 385
-58 23 -16 57 -51 76 -77 55 -76 66 -133 66 -341 l0 -182 -80 0 c-122 0 -120
4 -120 -230 l0 -190 -24 0 c-13 0 -35 -9 -50 -21 l-26 -20 0 -965 c0 -951 0
-964 20 -984 15 -15 33 -20 75 -20 l55 0 0 -704 c0 -808 -8 -743 93 -753 l57
-6 0 -184 c0 -182 0 -184 25 -208 13 -14 36 -25 50 -25 14 0 37 11 50 25 25
24 25 26 25 210 l0 185 34 0 c46 0 94 18 106 40 6 12 10 281 10 719 l0 701 53
0 c43 0 58 5 75 23 l22 23 0 576 c0 317 -3 584 -6 593 -10 26 -63 45 -93 34
-52 -20 -50 -7 -51 -571 l0 -528 -225 0 -225 0 0 855 0 855 164 0 c89 0 191
-3 225 -6 l61 -7 0 -172 c0 -166 1 -172 23 -193 31 -29 77 -29 105 1 21 23 22
31 22 251 l0 227 -25 24 c-13 14 -36 25 -50 25 l-25 0 0 188 c0 184 -1 189
-23 210 -20 19 -35 22 -100 22 l-77 0 0 188 c0 268 -24 350 -134 470 -61 66
-142 113 -231 137 -76 19 -502 20 -582 1z"/>
<path d="M1125 4165 l-25 -24 0 -471 0 -471 25 -24 c13 -14 36 -25 50 -25 14
0 37 11 50 25 l25 24 0 421 0 420 825 0 825 0 -2 -832 -3 -833 -820 0 -820 0
-5 268 -5 269 -25 20 c-30 24 -77 18 -102 -13 -16 -19 -18 -51 -18 -336 l0
-314 25 -24 24 -25 926 0 926 0 24 25 25 24 0 936 0 936 -25 24 -24 25 -926 0
-926 0 -24 -25z"/>
<path d="M1533 3866 l-28 -24 -3 -354 c-2 -194 0 -368 3 -386 7 -38 40 -72 71
-72 68 0 84 36 84 185 l0 115 165 0 c172 0 215 8 229 45 3 9 6 118 6 241 l0
225 -25 24 -24 25 -225 0 c-223 0 -225 0 -253 -24z m377 -256 l0 -130 -125 0
-125 0 0 130 0 130 125 0 125 0 0 -130z"/>
<path d="M2234 3679 c-40 -20 -44 -48 -44 -330 l0 -270 25 -24 c30 -30 64 -32
99 -4 25 20 26 24 26 120 l0 99 75 0 75 0 0 -79 c0 -117 22 -160 83 -161 31 0
64 28 73 64 3 13 4 83 2 155 -4 171 2 164 -171 171 l-132 5 -5 112 c-5 120
-12 137 -60 147 -14 3 -35 0 -46 -5z"/>
<path d="M1534 2907 c-35 -31 -38 -82 -5 -109 22 -17 49 -18 397 -18 361 0
375 1 394 20 30 30 27 83 -6 109 -26 20 -38 21 -390 21 l-363 0 -27 -23z"/>
<path d="M1550 2667 c-38 -19 -54 -60 -38 -94 22 -47 48 -53 233 -53 183 0
208 6 234 51 19 33 1 81 -35 98 -36 16 -361 15 -394 -2z"/>
<path d="M1323 1902 c-95 -34 -144 -78 -194 -172 -19 -37 -23 -60 -23 -130 0
-72 4 -93 26 -135 60 -116 162 -179 288 -180 62 0 85 5 132 28 203 99 245 366
82 517 -87 80 -209 109 -311 72z m177 -161 c106 -56 105 -221 -2 -281 -76 -43
-185 -13 -224 63 -22 42 -21 119 3 159 43 74 144 101 223 59z"/>
<path d="M1826 1899 c-33 -26 -36 -79 -6 -109 19 -19 33 -20 255 -20 222 0
236 1 255 20 30 30 27 83 -6 109 -25 20 -39 21 -249 21 -210 0 -224 -1 -249
-21z"/>
<path d="M2650 1907 c-60 -17 -110 -48 -153 -97 -47 -51 -63 -83 -77 -156 -21
-105 17 -213 101 -289 64 -57 121 -79 209 -79 127 0 227 61 287 177 23 44 27
65 27 137 1 74 -3 92 -27 137 -72 138 -228 210 -367 170z m170 -170 c95 -63
99 -203 9 -268 -48 -34 -126 -38 -177 -9 -107 60 -108 225 -2 281 50 27 128
25 170 -4z"/>
<path d="M1820 1410 c-28 -28 -26 -75 5 -105 l24 -25 224 0 c212 0 226 1 251
21 33 26 36 79 6 109 -19 19 -33 20 -255 20 -222 0 -236 -1 -255 -20z"/>
</g>
</svg>
