<?xml version="1.0" standalone="no"?>
<!DOCTYPE svg PUBLIC "-//W3C//DTD SVG 20010904//EN"
 "http://www.w3.org/TR/2001/REC-SVG-20010904/DTD/svg10.dtd">
<svg version="1.0" xmlns="http://www.w3.org/2000/svg"
 width="512.000000pt" height="512.000000pt" viewBox="0 0 512.000000 512.000000"
 preserveAspectRatio="xMidYMid meet">

<g transform="translate(0.000000,512.000000) scale(0.100000,-0.100000)"
fill="#000000" stroke="none">
<path d="M1915 5106 c-238 -55 -413 -194 -516 -411 -72 -150 -69 -97 -69
-1423 l0 -1190 -81 -78 c-126 -123 -205 -239 -269 -394 -37 -89 -70 -215 -70
-264 0 -44 29 -76 69 -76 49 0 67 26 95 140 49 198 133 341 295 499 l106 104
5 1246 5 1246 22 66 c71 207 256 360 473 391 297 44 581 -158 645 -457 12 -60
15 -252 15 -1283 l0 -1214 37 -31 c136 -117 213 -209 281 -337 173 -324 150
-744 -58 -1044 -60 -86 -189 -214 -273 -269 -258 -171 -587 -220 -871 -130
-344 108 -613 402 -691 755 -10 46 -24 83 -36 94 -25 23 -73 22 -100 -2 -19
-17 -21 -26 -16 -79 12 -124 87 -311 186 -460 93 -141 285 -307 449 -389 135
-68 344 -116 502 -116 112 0 259 25 378 65 412 138 713 488 783 910 15 89 14
289 0 380 -40 246 -168 486 -350 658 l-71 66 -2 1218 c-3 1131 -4 1222 -21
1278 -74 250 -258 439 -502 515 -90 28 -264 36 -350 16z"/>
<path d="M3474 4708 c-22 -10 -44 -47 -44 -74 0 -8 11 -26 25 -39 l24 -25 346
0 c332 0 346 1 365 20 30 30 27 83 -6 109 -26 20 -37 21 -358 20 -206 0 -339
-4 -352 -11z"/>
<path d="M1983 4636 c-86 -28 -143 -79 -181 -164 -16 -34 -17 -138 -20 -1324
l-2 -1288 -43 -21 c-438 -221 -543 -795 -210 -1149 123 -131 245 -197 421
-227 220 -37 447 35 614 195 116 111 181 231 214 392 61 305 -101 638 -381
780 l-65 33 0 958 0 958 -22 21 c-32 29 -81 27 -107 -6 -19 -24 -21 -40 -21
-160 l0 -134 -120 0 -120 0 0 450 c0 485 0 488 52 524 28 20 90 20 128 1 53
-27 60 -56 60 -240 0 -163 0 -166 25 -190 30 -30 64 -32 99 -4 l26 20 0 187
c0 176 -2 190 -24 237 -28 59 -86 118 -138 139 -54 23 -136 28 -185 12z"/>
<path d="M3474 4098 c-22 -10 -44 -47 -44 -74 0 -8 11 -26 25 -39 l24 -25 241
0 c151 0 249 4 261 11 48 25 44 105 -7 128 -32 14 -470 14 -500 -1z"/>
<path d="M3472 3490 c-22 -9 -42 -46 -42 -76 0 -8 11 -26 25 -39 l24 -25 344
0 c332 0 344 1 365 20 32 30 30 82 -4 109 -26 20 -37 21 -358 20 -182 0 -341
-4 -354 -9z"/>
<path d="M3459 2871 c-17 -13 -23 -29 -23 -56 0 -27 6 -43 23 -56 21 -17 44
-19 265 -19 262 0 277 3 290 55 7 27 -7 62 -33 82 -12 9 -83 12 -257 13 -222
0 -244 -2 -265 -19z"/>
<path d="M3459 2261 c-17 -13 -23 -29 -23 -56 0 -27 6 -43 23 -56 22 -18 46
-19 365 -19 l343 0 21 23 c31 33 29 80 -4 106 -26 20 -38 21 -364 21 -315 0
-339 -1 -361 -19z"/>
</g>
</svg>
